<?xml version="1.0" standalone="no"?>
<!DOCTYPE svg PUBLIC "-//W3C//DTD SVG 20010904//EN"
 "http://www.w3.org/TR/2001/REC-SVG-20010904/DTD/svg10.dtd">
<svg version="1.0" xmlns="http://www.w3.org/2000/svg"
 width="700.000000pt" height="700.000000pt" viewBox="0 0 700.000000 700.000000"
 preserveAspectRatio="xMidYMid meet">
<metadata>
Created by potrace 1.14, written by Peter Selinger 2001-2017
</metadata>
<g transform="translate(0.000000,700.000000) scale(0.100000,-0.100000)"
fill="#000000" stroke="none">
<path d="M4666 6020 l-979 -979 262 -262 c144 -144 260 -266 259 -270 -3 -10
-299 -309 -306 -309 -2 0 -180 176 -395 391 l-390 390 82 83 82 83 -147 147
-146 147 -80 -78 c-43 -43 -81 -80 -84 -82 -2 -2 -96 88 -208 200 -112 112
-213 213 -225 223 l-22 20 -544 -544 c-300 -300 -545 -548 -545 -551 0 -3 100
-106 221 -228 122 -122 219 -225 215 -229 -3 -4 -40 -41 -82 -82 l-75 -76 147
-148 147 -147 83 82 83 83 392 -392 c216 -216 390 -394 388 -397 -33 -37 -304
-305 -309 -305 -4 0 -125 118 -269 262 l-262 261 -979 -979 -980 -980 677
-677 678 -677 979 979 979 980 -265 265 -265 265 151 150 c83 83 154 154 158
157 4 4 83 -68 175 -160 93 -92 197 -187 233 -210 117 -78 251 -120 405 -129
47 -3 50 -5 52 -33 11 -163 23 -214 72 -320 53 -112 95 -166 267 -337 l148
-148 200 200 201 201 117 -117 117 -117 147 148 148 147 -117 117 -117 117
201 201 201 201 -144 143 c-160 160 -201 195 -273 237 -113 66 -229 98 -380
107 l-40 2 -1 48 c-5 149 -50 287 -136 416 -20 30 -109 128 -197 216 -88 89
-161 166 -163 172 -2 6 66 80 150 165 l153 154 265 -265 265 -265 980 979 979
980 -672 672 c-370 369 -675 674 -678 676 -3 3 -446 -436 -984 -974z m1102
274 c62 -63 112 -117 110 -119 -21 -26 -254 -255 -258 -255 -3 0 -57 52 -120
115 l-115 115 130 130 c71 72 132 130 134 130 2 0 56 -52 119 -116z m530 -530
l115 -115 -131 -132 -132 -132 -115 115 c-63 63 -114 118 -112 122 3 9 249
258 255 258 2 0 56 -52 120 -116z m-1082 -28 l113 -113 -132 -132 -132 -131
-117 117 -118 118 127 127 c70 71 132 128 136 128 5 0 60 -51 123 -114z m525
-525 c60 -60 109 -113 109 -118 0 -4 -57 -66 -128 -136 l-127 -127 -118 118
-117 117 122 126 c68 69 129 127 136 128 7 0 62 -48 123 -108z m-1085 -26
l115 -116 -28 -32 c-15 -18 -74 -77 -131 -132 l-102 -99 -118 117 -117 117
130 130 c71 71 131 130 132 130 1 0 55 -52 119 -115z m-2380 -456 c-140 -140
-258 -252 -263 -250 -4 2 -41 36 -81 76 l-72 72 257 257 257 257 78 -79 78
-78 -254 -255z m2922 -88 l104 -104 -131 -131 -131 -131 -115 115 c-63 63
-114 119 -112 123 1 5 59 64 127 132 103 103 127 122 139 112 8 -7 62 -59 119
-116z m-974 -1363 c35 -47 66 -145 66 -206 -1 -240 -246 -418 -470 -342 -35
12 -78 31 -95 43 -16 11 -341 332 -722 712 l-692 691 257 257 256 256 686
-687 c378 -378 699 -704 714 -724z m-2144 -673 l114 -114 -20 -22 c-14 -16
-220 -221 -238 -237 -2 -1 -56 50 -121 114 l-117 117 128 128 c71 71 131 129
134 129 3 0 57 -52 120 -115z m2776 0 c28 -10 62 -26 74 -35 l23 -17 -252
-252 c-138 -138 -253 -251 -255 -251 -2 0 -13 15 -23 33 -101 170 -44 395 124
494 93 54 208 65 309 28z m-2246 -530 l115 -115 -131 -131 -130 -130 -118 116
c-65 64 -115 120 -112 123 31 35 252 252 256 252 3 0 57 -52 120 -115z m-1023
-193 c-95 -97 -198 -197 -208 -200 -5 -2 -61 47 -123 110 l-114 113 131 132
132 133 117 -117 118 -118 -53 -53z m452 -608 l-132 -132 -116 116 c-64 64
-115 118 -113 121 1 4 60 64 129 134 l127 128 118 -118 118 -118 -131 -131z
m-1069 221 c63 -63 112 -116 110 -119 -135 -137 -195 -197 -223 -225 l-35 -33
-118 117 -117 116 129 130 c71 71 131 129 134 129 3 0 57 -52 120 -115z m530
-530 l115 -115 -132 -131 -131 -132 -111 111 c-61 61 -112 115 -113 121 -3 10
240 261 252 261 3 0 57 -52 120 -115z"/>
</g>
</svg>
