<?xml version="1.0" encoding="iso-8859-1"?>
<!-- Uploaded to: SVG Repo, www.svgrepo.com, Generator: SVG Repo Mixer Tools -->
<svg fill="#000000" height="800px" width="800px" version="1.1" id="Layer_1" xmlns="http://www.w3.org/2000/svg" xmlns:xlink="http://www.w3.org/1999/xlink" 
	 viewBox="0 0 512 512" xml:space="preserve">
<defs>
    <style>
        @media (prefers-color-scheme:dark) {
            svg {
                fill: #ffffff;
            }
        }
    </style>
</defs>
<g>
	<g>
		<path d="M386.327,306.005c-11.622-11.622-27.069-17.134-42.328-16.557c0.577-15.257-4.935-30.705-16.557-42.328l-20.563-20.563
			l23.05-23.05l38.751,38.751L512,98.942L413.058,0.001L269.741,143.318l38.751,38.751l-23.05,23.05l-57.532-57.533L240,135.498
			l-21.438-21.438l-12.089,12.089l-32.981-32.98l-80.323,80.323l32.98,32.98l-12.089,12.089l21.438,21.438l12.089-12.089
			l57.533,57.531l-23.05,23.05l-38.751-38.751L0,413.059l98.942,98.941L242.26,368.682l-38.752-38.752l23.05-23.05l20.563,20.563
			c11.072,11.072,25.617,16.61,40.161,16.61c0.723,0,1.444-0.024,2.166-0.052c-0.577,15.257,4.935,30.705,16.557,42.327l19.02,19.02
			l29.442-29.442l17.056,17.056l21.438-21.438l-17.056-17.056l29.442-29.442L386.327,306.005z M451.811,81.628l17.313,17.313
			l-19.189,19.189l-17.313-17.313L451.811,81.628z M413.059,42.877l17.313,17.313l-19.189,19.189l-17.313-17.313L413.059,42.877z
			 M411.184,122.255l17.313,17.313l-19.189,19.189l-17.313-17.313L411.184,122.255z M372.432,83.504l17.313,17.313l-19.189,19.189
			l-17.313-17.313L372.432,83.504z M370.557,162.882l17.313,17.313l-19.188,19.188l-17.313-17.313L370.557,162.882z
			 M331.806,124.131l17.313,17.313l-19.188,19.188l-17.313-17.313L331.806,124.131z M60.189,430.372l-17.313-17.313l19.189-19.189
			l17.313,17.313L60.189,430.372z M98.944,469.124L81.629,451.81l19.189-19.188l17.314,17.314L98.944,469.124z M100.816,389.745
			l-17.313-17.313l19.189-19.189l17.313,17.313L100.816,389.745z M139.569,428.498l-17.314-17.314l19.189-19.189l17.314,17.314
			L139.569,428.498z M141.443,349.119l-17.313-17.313l19.188-19.188l17.313,17.313L141.443,349.119z M180.195,387.87l-17.314-17.314
			l19.188-19.188l17.314,17.314L180.195,387.87z M136.046,173.493l37.446-37.447l11.542,11.542l-37.446,37.446L136.046,173.493z
			 M306.005,306.004c-5.003,5.003-11.651,7.757-18.724,7.757c-7.072,0-13.721-2.755-18.723-7.755l-99.533-99.533l37.446-37.446
			l99.533,99.533c5.001,5.002,7.756,11.65,7.756,18.723S311.006,301.002,306.005,306.004z M325.18,362.316
			c-7.996-10.376-7.241-25.368,2.263-34.872c5.161-5.161,11.942-7.742,18.723-7.742c5.705,0,11.409,1.827,16.149,5.481
			L325.18,362.316z"/>
	</g>
</g>
</svg>