<?xml version="1.0" encoding="iso-8859-1"?>
<!-- Uploaded to: SVG Repo, www.svgrepo.com, Generator: SVG Repo Mixer Tools -->
<svg fill="#000000" height="800px" width="800px" version="1.1" id="Layer_1" xmlns="http://www.w3.org/2000/svg" xmlns:xlink="http://www.w3.org/1999/xlink" 
	 viewBox="0 0 512 512" xml:space="preserve">
<defs>
    <style>
      @media (prefers-color-scheme:dark) {
        svg {
          fill: #ffffff;
        }
      }
    </style>
</defs>
<g>
	<g>
		<path d="M423.387,427.499V384.15c37.891-43.463,58.698-98.412,58.698-155.326v-2.737C482.085,101.422,380.664,0,256.001,0
			S29.916,101.422,29.916,226.085v2.737c0,56.916,20.807,111.864,58.698,155.326v43.349c-37.465,4.58-66.584,36.57-66.584,75.251
			c0,5.111,4.142,9.252,9.252,9.252h449.437c5.109,0,9.252-4.141,9.252-9.252C489.97,464.067,460.852,432.079,423.387,427.499z
			 M48.419,228.822v-2.737c0-114.462,93.121-207.582,207.582-207.582s207.582,93.12,207.582,207.582v2.737
			c0,52.692-19.386,103.589-54.667,143.774h-305.83C67.805,332.411,48.419,281.514,48.419,228.822z M404.884,391.101v35.813H107.117
			v-35.813H404.884z M41.279,493.497c4.437-27.229,28.122-48.081,56.586-48.081h316.27c28.464,0,52.149,20.851,56.586,48.081H41.279
			z"/>
	</g>
</g>
<g>
	<g>
		<path d="M433.369,172.522c-1.486-4.888-6.651-7.646-11.542-6.16c-4.889,1.486-7.647,6.655-6.16,11.542
			c15.487,50.937,4.023,107.836-29.918,148.495c-3.275,3.923-2.75,9.757,1.173,13.031c1.731,1.444,3.833,2.149,5.923,2.149
			c2.647,0,5.277-1.131,7.106-3.322C437.844,292.864,450.65,229.359,433.369,172.522z"/>
	</g>
</g>
<g>
	<g>
		<path d="M411.938,127.235c-15.842-24.552-39.08-44.822-69.068-60.246c-4.543-2.335-10.122-0.545-12.459,3.997
			c-2.336,4.542-0.546,10.12,3.997,12.458c27.068,13.921,47.922,32.029,61.983,53.823c1.77,2.742,4.745,4.237,7.782,4.237
			c1.718,0,3.456-0.479,5.007-1.479C413.473,137.255,414.708,131.528,411.938,127.235z"/>
	</g>
</g>
<g>
	<g>
		<path d="M306.513,54.035c-12.824-2.996-26.06-4.515-39.338-4.515c-5.109,0-9.252,4.141-9.252,9.252
			c0,5.111,4.142,9.252,9.252,9.252c11.863,0,23.682,1.357,35.128,4.031c0.708,0.165,1.416,0.244,2.113,0.244
			c4.201,0,8.004-2.882,9.001-7.15C314.579,60.175,311.489,55.199,306.513,54.035z"/>
	</g>
</g>
</svg>